# xmcd
#
# Track frame offsets:
#	150
#	18879
#	38198
#	54460
#	68311
#	85133
#	97833
#	114420
#	128950
#	144154
#	160138
#	174275
#	187679
#	206174
#	218914
#	235536
#
# Disc length: 3309 seconds
#
# Revision: 1
# Processed by: cddbd v1.5.2PL0 Copyright (c) Steve Scherf et al.
# Submitted via: audiograbber 1.83.01
#
DISCID=bf0ceb10
DTITLE=Diamond Back of Texas - Diamond Back of Texas 031
DYEAR=2010
DGENRE=Country
TTITLE0=Come A Little Bit Closer  - B. Jeff and Patricia Stone
TTITLE1=My Own Funeral  - Ryan Somerville
TTITLE2=My Guardian Angel  - Mitch Snow
TTITLE3=Since I Fell For You  - Patricia Stone
TTITLE4=The List  - William Ray
TTITLE5=Your Cheating Heart - Marilyn Mcconnell
TTITLE6=Blue Bayou  - Betsy Plemons
TTITLE7=I´ll Soon Get Over You  - Glenn Erickson
TTITLE8=I´ll Go Somewhere And Sing My Song Again  - Bruce Greaves
TTITLE9=Waining For The Tears To Fall  - Stan Lowdon
TTITLE10=So Long Coming  - Bruce Greaves
TTITLE11=You´re The Reason - Sonny May
TTITLE12=Jesus Don´t Know  - Sylvia S´aenz
TTITLE13=The Chair  - B. Jeff Stone
TTITLE14=Hank Snow And The Battery  - Fraser Newcombe
TTITLE15=Branded Country  - Buddy J
EXTD=
EXTT0=
EXTT1=
EXTT2=
EXTT3=
EXTT4=
EXTT5=
EXTT6=
EXTT7=
EXTT8=
EXTT9=
EXTT10=
EXTT11=
EXTT12=
EXTT13=
EXTT14=
EXTT15=
PLAYORDER=
